<svg width="1793" height="687" xmlns="http://www.w3.org/2000/svg" xmlns:xlink="http://www.w3.org/1999/xlink"><defs><path id="a" d="M0 0h1800v687H0z"/><path id="c" d="M0 0h1796.998v998H0z"/><path id="e" d="M0 0h1796.998v998H0z"/><path id="g" d="M0 0h1796.998v998H0z"/><path id="i" d="M0 0h1796.998v998H0z"/><path id="k" d="M0 0h1796.998v998H0z"/><path id="m" d="M0 0h1796.998v998H0z"/><path id="o" d="M0 0h1796.998v998H0z"/><path id="q" d="M0 0h1796.998v998H0z"/><path id="s" d="M0 0h1796.998v998H0z"/><path id="u" d="M0 0h1796.998v998H0z"/><path id="w" d="M0 0h1796.998v998H0z"/><path id="y" d="M0 0h1796.998v998H0z"/><path id="A" d="M0 0h1800v687H0z"/></defs><g fill="none" fill-rule="evenodd"><mask id="b" fill="#fff"><use xlink:href="#a"/></mask><g opacity=".1" mask="url(#b)"><g transform="translate(-4.002 -244)"><mask id="d" fill="#fff"><use xlink:href="#c"/></mask><g mask="url(#d)" stroke="#FFF" stroke-width="2.096"><path d="M1889.711 452.596c7.146 7.146 15.834 10.924 25.118 10.929 9.29 0 17.98-3.778 25.133-10.926 6.791-6.794 10.5-15.307 10.712-24.593.225-9.531-3.48-18.396-10.72-25.636l-98.233-98.199-140.026-139.982-56.011-55.992c-7.161-7.158-16.001-10.938-25.53-10.93-9.552-.008-18.387 3.769-25.55 10.932-7.243 7.238-10.952 16.103-10.72 25.619.212 9.301 4.069 17.951 11.14 25.022l294.687 293.756h0z"/></g></g><g transform="translate(-4.002 -244)"><mask id="f" fill="#fff"><use xlink:href="#e"/></mask><g mask="url(#f)"><path d="M2118.676-121.068l-356.762 356.643 395.844 395.712 421.743-421.6-330.865-330.755z"/><path d="M2118.676-121.068l-356.762 356.643 395.844 395.712 421.743-421.6-330.865-330.755z"/><path d="M2118.676-121.068l-356.762 356.643 395.844 395.712 421.743-421.6-330.865-330.755z"/><path d="M2118.676-121.068l-356.762 356.643 395.844 395.712 421.743-421.6-330.865-330.755z"/><path d="M2118.676-121.068l-356.762 356.643 395.844 395.712 421.743-421.6-330.865-330.755z"/><path d="M2118.676-121.068l-356.762 356.643 395.844 395.712 421.743-421.6-330.865-330.755z"/><path d="M2118.676-121.068l-356.762 356.643 395.844 395.712 421.743-421.6-330.865-330.755z"/><path d="M2118.676-121.068l-356.762 356.643 395.844 395.712 421.743-421.6-330.865-330.755z"/><path d="M2118.676-121.068l-356.762 356.643 395.844 395.712 421.743-421.6-330.865-330.755z"/><path d="M2118.676-121.068l-356.762 356.643 395.844 395.712 421.743-421.6-330.865-330.755z"/><path d="M2118.676-121.068l-356.762 356.643 395.844 395.712 421.743-421.6-330.865-330.755z"/><path d="M1889.711 452.596c7.145 7.146 15.833 10.923 25.118 10.928 9.29 0 17.98-3.777 25.133-10.925 6.79-6.794 10.5-15.307 10.712-24.594.225-9.53-3.48-18.395-10.72-25.636l-98.233-98.198-140.026-139.982-56.012-55.993c-7.16-7.158-16-10.938-25.53-10.93-9.551-.008-18.386 3.77-25.55 10.933-7.242 7.238-10.951 16.102-10.719 25.618.212 9.302 4.068 17.952 11.139 25.023l294.688 293.756z" stroke="#FFF" stroke-width="2.096"/><path d="M2118.676-121.068l-356.762 356.643 395.844 395.712 421.743-421.6-330.865-330.755z"/></g></g><g transform="translate(-4.002 -244)"><mask id="h" fill="#fff"><use xlink:href="#g"/></mask><g mask="url(#h)"><path d="M561.667-121.067l382.659 382.531 382.66-382.531z"/><path d="M561.667-121.067l382.659 382.531 382.66-382.531z"/><path d="M561.667-121.067l382.659 382.531 382.66-382.531z"/><path d="M561.667-121.067l382.659 382.531 382.66-382.531z"/><path d="M561.667-121.067l382.659 382.531 382.66-382.531z"/><path d="M561.667-121.067l382.659 382.531 382.66-382.531z"/><path d="M561.667-121.067l382.659 382.531 382.66-382.531z"/><path d="M561.667-121.067l382.659 382.531 382.66-382.531z"/></g></g><g transform="translate(-4.002 -244)"><mask id="j" fill="#fff"><use xlink:href="#i"/></mask><g mask="url(#j)"><path d="M1326.986-121.067L944.325 261.464l395.846 395.714 421.743-421.603-356.764-356.642z"/><path d="M1488.591 426.209c-8.81 8.807-13.47 19.366-13.854 31.375-.39 12.17 4.253 23.46 13.438 32.637 8.875 8.872 19.58 13.463 31.799 13.642 12.237.202 23.381-4.373 32.231-13.22 8.92-8.918 13.445-19.759 13.443-32.216.005-12.46-4.518-23.3-13.438-32.218-9.177-9.174-20.468-13.817-32.653-13.43-12.025.389-22.442 4.91-30.966 13.43h0z" stroke="#FFF" stroke-width="2.096"/><path d="M1326.986-121.067L944.325 261.464l395.846 395.714 421.743-421.603-356.764-356.642z"/><path d="M1833.43 559.092c7.156-7.15 10.935-15.983 10.93-25.534 0-9.553-3.781-18.383-10.932-25.531L1637.39 312.052c-7.16-7.155-15.998-10.938-25.53-10.93-9.551-.008-18.386 3.77-25.55 10.93-7.24 7.24-10.951 16.103-10.719 25.624.212 9.296 4.068 17.949 11.139 25.02l196.04 195.972c7.063 7.06 15.714 10.91 25.02 11.135 9.54.225 18.408-3.48 25.64-10.71v-.001z" stroke="#FFF" stroke-width="2.096"/><path d="M1326.986-121.067L944.325 261.464l395.846 395.714 421.743-421.603-356.764-356.642z"/><path d="M1889.711 452.597c7.145 7.145 15.833 10.923 25.118 10.928 9.29 0 17.98-3.778 25.133-10.926 6.791-6.794 10.5-15.307 10.712-24.593.225-9.531-3.48-18.396-10.72-25.636l-98.233-98.199-140.026-139.981-56.011-55.993c-7.161-7.158-16.001-10.938-25.53-10.93-9.552-.008-18.387 3.77-25.55 10.932-7.243 7.238-10.952 16.103-10.72 25.619.212 9.301 4.068 17.951 11.14 25.022l294.687 293.757h0z" stroke="#FFF" stroke-width="2.096"/><path d="M1326.986-121.067L944.325 261.464l395.846 395.714 421.743-421.603-356.764-356.642z"/><path d="M1326.986-121.067L944.325 261.464l395.846 395.714 421.743-421.603-356.764-356.642z"/><path d="M1326.986-121.067L944.325 261.464l395.846 395.714 421.743-421.603-356.764-356.642z"/><path d="M1192.811 130.525c-7.156 7.151-10.934 15.984-10.93 25.535 0 9.553 3.782 18.383 10.933 25.528l196.037 195.975c7.16 7.156 15.998 10.94 25.53 10.93 9.551.01 18.387-3.77 25.55-10.93 7.24-7.238 10.951-16.103 10.722-25.621-.215-9.299-4.07-17.952-11.142-25.022l-196.04-195.973c-7.063-7.06-15.713-10.91-25.02-11.132-9.54-.225-18.407 3.478-25.64 10.71z" stroke="#FFF" stroke-width="2.096"/><path d="M1326.986-121.067L944.325 261.464l395.846 395.714 421.743-421.603-356.764-356.642z"/><path d="M1136.531 237.02c-7.146-7.146-15.834-10.926-25.119-10.926-9.289 0-17.98 3.775-25.133 10.926-6.79 6.791-10.5 15.304-10.712 24.59-.224 9.532 3.48 18.396 10.72 25.637l98.233 98.198 140.026 139.982 56.012 55.993c7.16 7.156 16 10.938 25.53 10.93 9.551.008 18.387-3.77 25.55-10.933 7.242-7.238 10.951-16.102 10.72-25.616-.213-9.304-4.069-17.956-11.14-25.025L1136.531 237.02z" stroke="#FFF" stroke-width="2.096"/><path d="M1326.986-121.067L944.325 261.464l395.846 395.714 421.743-421.603-356.764-356.642z"/><path d="M1537.65 263.408c8.81-8.808 13.47-19.364 13.854-31.375.39-12.17-4.253-23.458-13.437-32.64-8.875-8.87-19.58-13.458-31.8-13.64-12.234-.202-23.38 4.374-32.23 13.221-8.92 8.92-13.446 19.758-13.44 32.216-.008 12.462 4.517 23.3 13.434 32.218 9.18 9.174 20.469 13.817 32.653 13.428 12.025-.387 22.443-4.908 30.966-13.428z" stroke="#FFF" stroke-width="2.096"/><path d="M1326.986-121.067L944.325 261.464l395.846 395.714 421.743-421.603-356.764-356.642z"/><path d="M1326.986-121.067L944.325 261.464l395.846 395.714 421.743-421.603-356.764-356.642z"/><path d="M1326.986-121.067L944.325 261.464l395.846 395.714 421.743-421.603-356.764-356.642z"/><path d="M1326.986-121.067L944.325 261.464l395.846 395.714 421.743-421.603-356.764-356.642z"/></g></g><g transform="translate(-4.002 -244)"><mask id="l" fill="#fff"><use xlink:href="#k"/></mask><g mask="url(#l)"><path d="M1340.172 657.178l395.846 395.712 421.74-421.603-395.843-395.712z"/><path d="M1340.172 657.178l395.846 395.712 421.74-421.603-395.843-395.712z"/><path d="M1340.172 657.178l395.846 395.712 421.74-421.603-395.843-395.712z"/><path d="M1340.172 657.178l395.846 395.712 421.74-421.603-395.843-395.712z"/><path d="M1863.814 1269.913c7.146 7.143 15.836 10.926 25.118 10.926 9.29 0 17.98-3.778 25.133-10.926 6.792-6.794 10.5-15.307 10.713-24.593.224-9.531-3.48-18.396-10.72-25.636l-98.233-98.198-140.027-139.98-56.011-55.993c-7.16-7.158-16-10.94-25.53-10.93-9.551-.008-18.384 3.77-25.55 10.93-7.243 7.238-10.951 16.103-10.72 25.619.213 9.301 4.069 17.954 11.14 25.025l294.687 293.756h0z" stroke="#FFF" stroke-width="2.096"/><path d="M1340.172 657.178l395.846 395.712 421.74-421.603-395.843-395.712z"/><path d="M1488.592 426.208c-8.81 8.808-13.47 19.367-13.855 31.375-.389 12.17 4.253 23.46 13.438 32.637 8.875 8.872 19.58 13.463 31.8 13.643 12.236.202 23.38-4.374 32.23-13.221 8.92-8.917 13.445-19.758 13.443-32.216.005-12.46-4.517-23.3-13.438-32.218-9.177-9.174-20.468-13.817-32.653-13.43-12.024.39-22.442 4.91-30.965 13.43h0z" stroke="#FFF" stroke-width="2.096"/><path d="M1340.172 657.178l395.846 395.712 421.74-421.603-395.843-395.712z"/><path d="M1588.656 526.24c-7.153 7.15-10.934 15.983-10.929 25.531 0 9.556 3.781 18.386 10.932 25.532l196.04 195.974c7.158 7.159 15.998 10.938 25.527 10.931 9.552.007 18.387-3.77 25.55-10.93 7.24-7.241 10.952-16.103 10.722-25.622-.215-9.299-4.068-17.951-11.141-25.02l-196.041-195.974c-7.061-7.061-15.714-10.911-25.019-11.133-9.541-.227-18.409 3.478-25.642 10.711h.001z" stroke="#FFF" stroke-width="2.096"/><path d="M1340.172 657.178l395.846 395.712 421.74-421.603-395.843-395.712z"/><path d="M1532.378 632.733c-7.148-7.143-15.836-10.926-25.12-10.926-9.287 0-17.978 3.778-25.13 10.926-6.794 6.794-10.5 15.307-10.715 24.59-.225 9.534 3.479 18.396 10.72 25.637l98.235 98.2 140.024 139.98 56.011 55.993c7.163 7.158 16 10.94 25.533 10.93 9.549.008 18.384-3.77 25.547-10.93 7.243-7.24 10.954-16.103 10.72-25.619-.213-9.301-4.066-17.954-11.14-25.025l-294.684-293.756h-.001z" stroke="#FFF" stroke-width="2.096"/><path d="M1340.172 657.178l395.846 395.712 421.74-421.603-395.843-395.712z"/><path d="M1340.172 657.178l395.846 395.712 421.74-421.603-395.843-395.712z"/><path d="M1833.431 559.092c7.155-7.151 10.934-15.983 10.929-25.534 0-9.554-3.781-18.383-10.932-25.532l-196.037-195.974c-7.16-7.156-15.999-10.938-25.53-10.93-9.552-.008-18.387 3.769-25.55 10.93-7.24 7.24-10.952 16.102-10.72 25.623.213 9.297 4.069 17.95 11.14 25.02l196.04 195.972c7.062 7.061 15.713 10.911 25.02 11.136 9.54.224 18.407-3.48 25.64-10.711h0z" stroke="#FFF" stroke-width="2.096"/><path d="M1340.172 657.178l395.846 395.712 421.74-421.603-395.843-395.712z"/><path d="M1889.711 452.596c7.146 7.146 15.834 10.923 25.118 10.928 9.29 0 17.98-3.777 25.133-10.925 6.791-6.794 10.5-15.307 10.712-24.594.225-9.53-3.479-18.395-10.72-25.636l-98.233-98.198-140.025-139.982-56.011-55.993c-7.16-7.158-16.001-10.938-25.53-10.93-9.552-.008-18.387 3.77-25.55 10.933-7.243 7.238-10.952 16.102-10.72 25.618.213 9.302 4.069 17.952 11.14 25.023l294.687 293.756h-.001z" stroke="#FFF" stroke-width="2.096"/><path d="M1340.172 657.178l395.846 395.712 421.74-421.603-395.843-395.712z"/><path d="M1340.172 657.178l395.846 395.712 421.74-421.603-395.843-395.712z"/><path d="M1136.531 237.02c-7.146-7.146-15.834-10.926-25.118-10.926-9.29 0-17.98 3.775-25.133 10.926-6.791 6.791-10.5 15.304-10.712 24.59-.225 9.531 3.479 18.396 10.72 25.636l98.233 98.199 140.025 139.982 56.011 55.992c7.16 7.156 16 10.938 25.53 10.931 9.552.007 18.387-3.77 25.55-10.933 7.243-7.238 10.952-16.103 10.72-25.616-.213-9.304-4.069-17.957-11.14-25.025L1136.532 237.02h-.001z" stroke="#FFF" stroke-width="2.096"/></g></g><g transform="translate(-4.002 -244)"><mask id="n" fill="#fff"><use xlink:href="#m"/></mask><g mask="url(#n)"><path d="M1736.017 1052.89l395.844 395.715 421.743-421.601-395.846-395.717z"/><path d="M1736.017 1052.89l395.844 395.715 421.743-421.601-395.846-395.717z"/><path d="M1736.017 1052.89l395.844 395.715 421.743-421.601-395.846-395.717z"/><path d="M1736.017 1052.89l395.844 395.715 421.743-421.601-395.846-395.717z"/><path d="M1736.017 1052.89l395.844 395.715 421.743-421.601-395.846-395.717z"/><path d="M1736.017 1052.89l395.844 395.715 421.743-421.601-395.846-395.717z"/><path d="M1736.017 1052.89l395.844 395.715 421.743-421.601-395.846-395.717z"/><path d="M1736.017 1052.89l395.844 395.715 421.743-421.601-395.846-395.717z"/><path d="M1736.017 1052.89l395.844 395.715 421.743-421.601-395.846-395.717z"/><path d="M1736.017 1052.89l395.844 395.715 421.743-421.601-395.846-395.717z"/><path d="M1736.017 1052.89l395.844 395.715 421.743-421.601-395.846-395.717z"/><path d="M1863.814 1269.914c7.145 7.143 15.836 10.925 25.118 10.925 9.29 0 17.98-3.777 25.133-10.925 6.791-6.794 10.5-15.307 10.712-24.594.225-9.53-3.48-18.395-10.72-25.636l-98.233-98.198-140.026-139.98-56.012-55.992c-7.16-7.158-16-10.94-25.53-10.93-9.55-.008-18.384 3.77-25.55 10.93-7.242 7.238-10.95 16.103-10.719 25.618.212 9.302 4.068 17.954 11.14 25.025l294.687 293.757h0z" stroke="#FFF" stroke-width="2.096"/><path d="M1736.017 1052.89l395.844 395.715 421.743-421.601-395.846-395.717z"/><path d="M1532.378 632.734c-7.148-7.144-15.836-10.926-25.12-10.926-9.288 0-17.978 3.777-25.131 10.926-6.795 6.793-10.5 15.306-10.715 24.59-.225 9.534 3.48 18.396 10.72 25.636l98.236 98.201 140.023 139.98 56.012 55.992c7.163 7.159 16 10.94 25.532 10.931 9.549.007 18.384-3.77 25.547-10.93 7.243-7.241 10.954-16.103 10.72-25.62-.212-9.3-4.066-17.953-11.139-25.024l-294.685-293.756z" stroke="#FFF" stroke-width="2.096"/></g></g><g transform="translate(-4.002 -244)"><mask id="p" fill="#fff"><use xlink:href="#o"/></mask><g mask="url(#p)"><path d="M.324-121.068v282.047l126.414 126.372L535.29-121.068z"/><path d="M.324-121.068v282.047l126.414 126.372L535.29-121.068z"/><path d="M.324-121.068v282.047l126.414 126.372L535.29-121.068z"/><path d="M.324-121.068v282.047l126.414 126.372L535.29-121.068z"/><path d="M254.534 504.372c7.146 7.143 15.834 10.923 25.118 10.928 9.29 0 17.98-3.777 25.133-10.928 6.791-6.791 10.5-15.304 10.712-24.59.225-9.532-3.479-18.396-10.72-25.637l-98.233-98.198L66.518 215.965l-56.011-55.993c-7.16-7.158-16.001-10.938-25.53-10.93-9.552-.008-18.387 3.77-25.55 10.93-7.243 7.24-10.952 16.103-10.72 25.621.213 9.3 4.069 17.952 11.14 25.023l294.686 293.756h.001z" stroke="#FFF" stroke-width="2.096"/><path d="M.324-121.068v282.047l126.414 126.372L535.29-121.068z"/><path d="M.324-121.068v282.047l126.414 126.372L535.29-121.068z"/><path d="M.324-121.068v282.047l126.414 126.372L535.29-121.068z"/></g></g><g transform="translate(-4.002 -244)"><mask id="r" fill="#fff"><use xlink:href="#q"/></mask><g mask="url(#r)"><path d="M535.29-121.068L126.738 287.351l395.844 395.715 421.743-421.603-382.659-382.531z"/><path d="M671.004 452.097c-8.81 8.807-13.47 19.366-13.854 31.374-.392 12.17 4.253 23.46 13.437 32.637 8.873 8.872 19.578 13.463 31.8 13.643 12.234.202 23.378-4.374 32.231-13.221 8.92-8.917 13.443-19.758 13.44-32.216.008-12.462-4.517-23.3-13.437-32.217-9.178-9.175-20.466-13.818-32.65-13.431-12.028.39-22.446 4.91-30.967 13.43v.001z" stroke="#FFF" stroke-width="2.096"/><path d="M535.29-121.068L126.738 287.351l395.844 395.715 421.743-421.603-382.659-382.531z"/><path d="M535.29-121.068L126.738 287.351l395.844 395.715 421.743-421.603-382.659-382.531z"/><path d="M535.29-121.068L126.738 287.351l395.844 395.715 421.743-421.603-382.659-382.531z"/><path d="M650.379 900.085c7.149 7.146 15.837 10.923 25.121 10.928 9.287 0 17.98-3.777 25.13-10.925 6.794-6.794 10.5-15.307 10.715-24.593.225-9.531-3.482-18.396-10.722-25.637L602.39 751.66 462.366 611.678l-56.011-55.993c-7.163-7.155-16.004-10.938-25.533-10.93-9.551-.008-18.384 3.772-25.55 10.933-7.242 7.238-10.951 16.103-10.717 25.619.21 9.301 4.066 17.954 11.14 25.022l294.684 293.756h0z" stroke="#FFF" stroke-width="2.096"/><path d="M535.29-121.068L126.738 287.351l395.844 395.715 421.743-421.603-382.659-382.531z"/><path d="M375.221 156.413c-7.153 7.151-10.934 15.983-10.926 25.534-.005 9.554 3.78 18.38 10.929 25.529l196.04 195.975c7.16 7.155 15.998 10.94 25.527 10.93 9.554.01 18.387-3.77 25.55-10.93 7.24-7.238 10.952-16.103 10.722-25.621-.212-9.3-4.068-17.952-11.141-25.023L425.884 156.835c-7.063-7.06-15.714-10.91-25.02-11.133-9.542-.227-18.41 3.478-25.643 10.711z" stroke="#FFF" stroke-width="2.096"/><path d="M535.29-121.068L126.738 287.351l395.844 395.715 421.743-421.603-382.659-382.531z"/><path d="M318.943 262.908c-7.148-7.146-15.836-10.923-25.12-10.928-9.287 0-17.98 3.777-25.13 10.928-6.794 6.791-10.5 15.304-10.715 24.59-.225 9.531 3.479 18.396 10.72 25.637l98.235 98.198 140.024 139.982 56.011 55.992c7.163 7.156 16.004 10.939 25.533 10.931 9.551.008 18.384-3.772 25.547-10.933 7.243-7.238 10.954-16.103 10.72-25.619-.21-9.301-4.066-17.954-11.14-25.022L318.944 262.908h-.001z" stroke="#FFF" stroke-width="2.096"/><path d="M535.29-121.068L126.738 287.351l395.844 395.715 421.743-421.603-382.659-382.531z"/><path d="M535.29-121.068L126.738 287.351l395.844 395.715 421.743-421.603-382.659-382.531z"/><path d="M535.29-121.068L126.738 287.351l395.844 395.715 421.743-421.603-382.659-382.531z"/><path d="M535.29-121.068L126.738 287.351l395.844 395.715 421.743-421.603-382.659-382.531z"/><path d="M254.534 504.372c7.146 7.143 15.834 10.923 25.118 10.928 9.29 0 17.98-3.777 25.133-10.928 6.791-6.791 10.5-15.304 10.712-24.59.225-9.532-3.479-18.396-10.72-25.637l-98.233-98.198L66.518 215.965l-56.011-55.993c-7.16-7.158-16.001-10.938-25.53-10.93-9.552-.008-18.387 3.77-25.55 10.93-7.243 7.24-10.952 16.103-10.72 25.621.213 9.3 4.069 17.952 11.14 25.023l294.686 293.756h.001z" stroke="#FFF" stroke-width="2.096"/><path d="M535.29-121.068L126.738 287.351l395.844 395.715 421.743-421.603-382.659-382.531z"/></g></g><g transform="translate(-4.002 -244)"><mask id="t" fill="#fff"><use xlink:href="#s"/></mask><g mask="url(#t)"><path d="M522.581 683.066l395.847 395.712 421.743-421.6-395.846-395.714z"/><path d="M1066.85 847.81c-8.811 8.808-13.47 19.366-13.855 31.375-.392 12.17 4.253 23.46 13.437 32.64 8.873 8.87 19.58 13.46 31.8 13.64 12.234.202 23.38-4.374 32.23-13.221 8.921-8.917 13.446-19.758 13.44-32.216.008-12.46-4.517-23.3-13.437-32.218-9.177-9.174-20.465-13.817-32.65-13.428-12.025.387-22.445 4.91-30.966 13.428h.001z" stroke="#FFF" stroke-width="2.096"/><path d="M522.581 683.066l395.847 395.712 421.743-421.6-395.846-395.714z"/><path d="M1411.688 980.693c7.153-7.15 10.934-15.982 10.93-25.533 0-9.554-3.782-18.384-10.932-25.532l-196.04-195.972c-7.158-7.158-15.996-10.938-25.528-10.93-9.551-.008-18.387 3.77-25.55 10.93-7.24 7.24-10.951 16.1-10.722 25.621.215 9.3 4.071 17.95 11.142 25.02l196.04 195.972c7.063 7.061 15.713 10.913 25.02 11.136 9.54.224 18.407-3.481 25.64-10.712h0z" stroke="#FFF" stroke-width="2.096"/><path d="M522.581 683.066l395.847 395.712 421.743-421.6-395.846-395.714z"/><path d="M1467.969 874.198c7.145 7.146 15.833 10.923 25.118 10.928 9.29 0 17.98-3.777 25.13-10.926 6.794-6.793 10.5-15.306 10.715-24.593.224-9.53-3.48-18.395-10.72-25.636l-98.233-98.198-140.026-139.982L1119.62 426c-7.16-7.156-16-10.938-25.53-10.93-9.551-.008-18.386 3.772-25.55 10.933-7.242 7.238-10.953 16.102-10.719 25.618.212 9.302 4.068 17.954 11.139 25.023l399.008 397.554h.001z" stroke="#FFF" stroke-width="2.096"/><path d="M522.581 683.066l395.847 395.712 421.743-421.6-395.846-395.714z"/><path d="M522.581 683.066l395.847 395.712 421.743-421.6-395.846-395.714z"/><path d="M671.004 452.097c-8.81 8.807-13.47 19.366-13.854 31.375-.392 12.17 4.253 23.46 13.437 32.637 8.873 8.872 19.578 13.463 31.8 13.642 12.234.203 23.378-4.373 32.23-13.22 8.92-8.918 13.443-19.758 13.44-32.216.008-12.463-4.517-23.3-13.437-32.218-9.177-9.174-20.466-13.817-32.65-13.43-12.028.389-22.445 4.91-30.966 13.43h0z" stroke="#FFF" stroke-width="2.096"/><path d="M522.581 683.066l395.847 395.712 421.743-421.6-395.846-395.714z"/><path d="M771.066 552.128c-7.153 7.151-10.934 15.983-10.926 25.532 0 9.556 3.78 18.383 10.931 25.531L967.11 799.166c7.16 7.158 15.998 10.938 25.53 10.93 9.551.008 18.387-3.77 25.55-10.93 7.24-7.24 10.949-16.103 10.72-25.624-.213-9.296-4.069-17.949-11.142-25.017L821.729 552.55c-7.063-7.06-15.713-10.91-25.02-11.135-9.54-.225-18.407 3.48-25.643 10.713z" stroke="#FFF" stroke-width="2.096"/><path d="M522.581 683.066l395.847 395.712 421.743-421.6-395.846-395.714z"/><path d="M714.788 658.622c-7.145-7.144-15.836-10.923-25.118-10.928-9.29 0-17.98 3.777-25.133 10.928-6.791 6.791-10.5 15.306-10.714 24.59-.223 9.534 3.481 18.396 10.722 25.637l98.233 98.2 140.026 139.98 56.012 55.992c7.16 7.159 16 10.941 25.53 10.931 9.551.008 18.384-3.77 25.55-10.933 7.242-7.238 10.951-16.103 10.719-25.616-.212-9.304-4.068-17.954-11.14-25.025L714.789 658.622h-.001z" stroke="#FFF" stroke-width="2.096"/><path d="M522.581 683.066l395.847 395.712 421.743-421.6-395.846-395.714z"/><path d="M522.581 683.066l395.847 395.712 421.743-421.6-395.846-395.714z"/><path d="M522.581 683.066l395.847 395.712 421.743-421.6-395.846-395.714z"/><path d="M522.581 683.066l395.847 395.712 421.743-421.6-395.846-395.714z"/><path d="M650.38 900.086c7.147 7.145 15.835 10.923 25.12 10.928 9.287 0 17.98-3.778 25.13-10.926 6.794-6.794 10.5-15.307 10.715-24.593.225-9.53-3.482-18.396-10.722-25.636l-98.234-98.198-140.023-139.982-56.012-55.993c-7.163-7.156-16.003-10.938-25.532-10.93-9.552-.008-18.384 3.772-25.55 10.932-7.243 7.238-10.951 16.103-10.717 25.62.21 9.3 4.066 17.953 11.139 25.021l294.685 293.757h.001z" stroke="#FFF" stroke-width="2.096"/><path d="M522.581 683.066l395.847 395.712 421.743-421.6-395.846-395.714z"/><path d="M318.943 262.908c-7.148-7.146-15.836-10.923-25.12-10.928-9.287 0-17.98 3.778-25.13 10.928-6.796 6.792-10.501 15.305-10.717 24.59-.224 9.532 3.48 18.397 10.72 25.637l98.236 98.198 140.024 139.982 56.011 55.993c7.163 7.156 16.003 10.938 25.532 10.93 9.552.008 18.385-3.772 25.548-10.932 7.243-7.238 10.954-16.103 10.72-25.62-.21-9.3-4.066-17.953-11.14-25.022L318.943 262.908z" stroke="#FFF" stroke-width="2.096"/></g></g><g transform="translate(-4.002 -244)"><mask id="v" fill="#fff"><use xlink:href="#u"/></mask><g mask="url(#v)"><path d="M918.428 1078.778l395.846 395.714 421.743-421.602-395.846-395.712z"/><path d="M918.428 1078.778l395.846 395.714 421.743-421.602-395.846-395.712z"/><path d="M918.428 1078.778l395.846 395.714 421.743-421.602-395.846-395.712z"/><path d="M1863.814 1269.913c7.145 7.143 15.836 10.926 25.118 10.926 9.29 0 17.98-3.778 25.133-10.926 6.791-6.794 10.5-15.307 10.712-24.593.225-9.531-3.48-18.396-10.72-25.636l-98.233-98.198-140.026-139.98-56.012-55.993c-7.16-7.158-16-10.94-25.53-10.93-9.55-.008-18.384 3.77-25.55 10.93-7.242 7.238-10.95 16.103-10.719 25.619.212 9.301 4.068 17.954 11.14 25.025l294.687 293.756z" stroke="#FFF" stroke-width="2.096"/><path d="M918.428 1078.778l395.846 395.714 421.743-421.602-395.846-395.712z"/><path d="M918.428 1078.778l395.846 395.714 421.743-421.602-395.846-395.712z"/><path d="M1066.85 847.81c-8.81 8.807-13.47 19.366-13.855 31.374-.392 12.171 4.253 23.46 13.438 32.64 8.872 8.87 19.58 13.46 31.799 13.64 12.234.202 23.38-4.374 32.231-13.22 8.92-8.918 13.445-19.759 13.44-32.216.008-12.46-4.517-23.301-13.437-32.218-9.178-9.174-20.466-13.818-32.65-13.428-12.026.386-22.446 4.91-30.967 13.428h.001z" stroke="#FFF" stroke-width="2.096"/><path d="M918.428 1078.778l395.846 395.714 421.743-421.602-395.846-395.712z"/><path d="M918.428 1078.778l395.846 395.714 421.743-421.602-395.846-395.712z"/><path d="M918.428 1078.778l395.846 395.714 421.743-421.602-395.846-395.712z"/><path d="M918.428 1078.778l395.846 395.714 421.743-421.602-395.846-395.712z"/><path d="M1411.688 980.693c7.153-7.15 10.935-15.983 10.93-25.534 0-9.553-3.782-18.383-10.932-25.531l-196.04-195.972c-7.158-7.159-15.996-10.939-25.528-10.931-9.551-.008-18.386 3.77-25.55 10.93-7.24 7.241-10.951 16.1-10.721 25.622.214 9.299 4.07 17.949 11.14 25.02l196.041 195.972c7.063 7.06 15.714 10.913 25.02 11.135 9.54.225 18.407-3.48 25.64-10.711h0z" stroke="#FFF" stroke-width="2.096"/><path d="M918.428 1078.778l395.846 395.714 421.743-421.602-395.846-395.712z"/><path d="M918.428 1078.778l395.846 395.714 421.743-421.602-395.846-395.712z"/><path d="M918.428 1078.778l395.846 395.714 421.743-421.602-395.846-395.712z"/><path d="M714.788 658.621c-7.145-7.143-15.836-10.923-25.118-10.928-9.29 0-17.98 3.777-25.133 10.928-6.79 6.792-10.5 15.307-10.714 24.59-.222 9.534 3.481 18.397 10.722 25.637l98.233 98.2 140.026 139.98 56.012 55.993c7.16 7.158 16 10.94 25.53 10.93 9.551.008 18.384-3.77 25.55-10.933 7.242-7.238 10.951-16.102 10.72-25.616-.213-9.304-4.07-17.954-11.14-25.025L714.788 658.621z" stroke="#FFF" stroke-width="2.096"/></g></g><g transform="translate(-4.002 -244)"><mask id="x" fill="#fff"><use xlink:href="#w"/></mask><g mask="url(#x)"><path d="M.324 413.72l126.414-126.369L.324 160.979z"/><path d="M198.254 610.867c7.156-7.153 10.934-15.985 10.93-25.533 0-9.554-3.782-18.383-10.932-25.532L2.214 363.828c-7.16-7.156-15.998-10.938-25.53-10.93-9.551-.008-18.387 3.769-25.55 10.93-7.24 7.24-10.951 16.102-10.72 25.623.213 9.297 4.069 17.95 11.14 25.018l196.04 195.974c7.063 7.061 15.713 10.911 25.02 11.136 9.54.224 18.407-3.48 25.64-10.711v-.001z" stroke="#FFF" stroke-width="2.096"/><path d="M.324 413.72l126.414-126.369L.324 160.979z"/><path d="M254.535 504.372c7.145 7.143 15.833 10.923 25.118 10.928 9.29 0 17.98-3.777 25.133-10.928 6.79-6.791 10.5-15.304 10.712-24.59.224-9.532-3.48-18.396-10.72-25.637l-98.233-98.198L66.519 215.965l-56.012-55.993c-7.16-7.158-16-10.938-25.53-10.93-9.551-.008-18.386 3.77-25.55 10.93-7.242 7.24-10.951 16.103-10.72 25.621.213 9.3 4.07 17.952 11.14 25.023l294.688 293.756z" stroke="#FFF" stroke-width="2.096"/></g></g><g transform="translate(-4.002 -244)"><mask id="z" fill="#fff"><use xlink:href="#y"/></mask><g mask="url(#z)"><path d="M.324 413.72v590.465l100.517 100.481 421.741-421.6-395.844-395.715z"/><path d="M249.26 873.697c-8.808 8.808-13.47 19.367-13.852 31.376-.391 12.17 4.253 23.46 13.435 32.64 8.876 8.869 19.58 13.46 31.8 13.64 12.237.201 23.38-4.374 32.233-13.222 8.918-8.917 13.443-19.758 13.44-32.215.006-12.46-4.517-23.301-13.437-32.218-9.177-9.174-20.468-13.817-32.653-13.43-12.025.389-22.442 4.912-30.966 13.43v-.001z" stroke="#FFF" stroke-width="2.096"/><path d="M.324 413.72v590.465l100.517 100.481 421.741-421.6-395.844-395.715z"/><path d="M594.102 1006.581c7.153-7.15 10.934-15.983 10.926-25.534 0-9.553-3.78-18.383-10.931-25.531L398.059 759.543c-7.16-7.158-15.998-10.938-25.527-10.933-9.554-.005-18.39 3.773-25.552 10.933-7.24 7.24-10.95 16.1-10.72 25.622.212 9.298 4.068 17.949 11.141 25.02l196.038 195.972c7.063 7.06 15.714 10.913 25.02 11.135 9.54.224 18.407-3.48 25.643-10.711h0z" stroke="#FFF" stroke-width="2.096"/><path d="M.324 413.72v590.465l100.517 100.481 421.741-421.6-395.844-395.715z"/><path d="M650.38 900.085c7.148 7.146 15.836 10.923 25.12 10.928 9.287 0 17.98-3.777 25.13-10.925 6.794-6.794 10.5-15.307 10.715-24.593.225-9.531-3.481-18.396-10.722-25.637L602.39 751.66 462.365 611.678l-56.011-55.993c-7.163-7.155-16.003-10.938-25.533-10.93-9.551-.008-18.384 3.772-25.55 10.933-7.242 7.238-10.951 16.103-10.716 25.619.21 9.301 4.065 17.954 11.138 25.022l294.686 293.756h.001z" stroke="#FFF" stroke-width="2.096"/><path d="M.324 413.72v590.465l100.517 100.481 421.741-421.6-395.844-395.715z"/><path d="M.324 413.72v590.465l100.517 100.481 421.741-421.6-395.844-395.715z"/><path d="M-46.52 578.013c-7.153 7.154-10.934 15.986-10.93 25.534 0 9.554 3.782 18.383 10.932 25.532l196.04 195.974c7.158 7.156 15.999 10.938 25.528 10.931 9.551.007 18.386-3.77 25.55-10.93 7.24-7.241 10.951-16.103 10.722-25.624-.215-9.297-4.069-17.95-11.142-25.018L4.14 578.438c-7.06-7.061-15.714-10.911-25.02-11.136-9.54-.224-18.407 3.48-25.64 10.711h0z" stroke="#FFF" stroke-width="2.096"/><path d="M.324 413.72v590.465l100.517 100.481 421.741-421.6-395.844-395.715z"/><path d="M-102.798 684.509c-7.149-7.143-15.836-10.923-25.121-10.928-9.287 0-17.98 3.777-25.13 10.928-6.794 6.791-10.5 15.304-10.715 24.59-.225 9.532 3.48 18.396 10.722 25.637l98.233 98.2L85.215 972.917l56.011 55.993c7.163 7.158 16.001 10.94 25.533 10.93 9.549.008 18.384-3.77 25.547-10.933 7.243-7.238 10.954-16.102 10.72-25.616-.212-9.304-4.066-17.954-11.14-25.025l-294.683-293.757h-.001z" stroke="#FFF" stroke-width="2.096"/><path d="M.324 413.72v590.465l100.517 100.481 421.741-421.6-395.844-395.715z"/><path d="M298.319 710.897c8.81-8.805 13.47-19.367 13.854-31.375.392-12.17-4.253-23.46-13.437-32.637-8.873-8.872-19.58-13.463-31.8-13.643-12.234-.2-23.378 4.374-32.23 13.224-8.924 8.914-13.446 19.755-13.441 32.213-.007 12.462 4.515 23.3 13.438 32.218 9.177 9.174 20.465 13.817 32.65 13.43 12.027-.389 22.445-4.91 30.966-13.43h0z" stroke="#FFF" stroke-width="2.096"/><path d="M.324 413.72v590.465l100.517 100.481 421.741-421.6-395.844-395.715z"/><path d="M198.254 610.867c7.155-7.153 10.934-15.985 10.93-25.533 0-9.554-3.782-18.383-10.933-25.532L2.215 363.828c-7.16-7.156-15.998-10.938-25.53-10.93-9.552-.008-18.387 3.769-25.55 10.93-7.24 7.24-10.951 16.102-10.72 25.623.213 9.297 4.069 17.95 11.14 25.018l196.04 195.974c7.063 7.061 15.713 10.911 25.02 11.136 9.54.224 18.407-3.48 25.64-10.711l-.001-.001z" stroke="#FFF" stroke-width="2.096"/><path d="M10.005 414.369v590.464l100.518 100.481 421.74-421.6L136.419 288z"/><path d="M254.535 504.372c7.145 7.143 15.833 10.923 25.117 10.928 9.29 0 17.98-3.777 25.133-10.928 6.792-6.791 10.5-15.304 10.713-24.59.224-9.532-3.48-18.396-10.72-25.637l-98.233-98.198L66.518 215.965l-56.011-55.993c-7.16-7.158-16-10.938-25.53-10.93-9.551-.008-18.387 3.77-25.55 10.93-7.243 7.24-10.951 16.103-10.72 25.621.213 9.3 4.069 17.952 11.14 25.023l294.687 293.756h.001z" stroke="#FFF" stroke-width="2.096"/></g></g><path d="M96.839 860.666l395.844 395.717 421.743-421.605L518.58 439.066z"/><path d="M96.839 860.666l395.844 395.717 421.743-421.605L518.58 439.066z"/><path d="M96.839 860.666l395.844 395.717 421.743-421.605L518.58 439.066z"/><path d="M96.839 860.666l395.844 395.717 421.743-421.605L518.58 439.066z"/><path d="M96.839 860.666l395.844 395.717 421.743-421.605L518.58 439.066z"/><path d="M245.258 629.698c-8.808 8.808-13.47 19.367-13.852 31.375-.391 12.17 4.253 23.46 13.435 32.64 8.876 8.87 19.58 13.46 31.8 13.64 12.237.202 23.38-4.374 32.233-13.221 8.918-8.917 13.443-19.758 13.44-32.216.006-12.46-4.517-23.3-13.437-32.218-9.177-9.174-20.468-13.817-32.653-13.43-12.025.389-22.442 4.912-30.966 13.43h0z" stroke="#FFF" stroke-width="2.096"/><path d="M96.839 860.666l395.844 395.717 421.743-421.605L518.58 439.066z"/><path d="M96.839 860.666l395.844 395.717 421.743-421.605L518.58 439.066z"/><path d="M96.839 860.666l395.844 395.717 421.743-421.605L518.58 439.066z"/><path d="M96.839 860.666l395.844 395.717 421.743-421.605L518.58 439.066z"/><path d="M590.1 762.581c7.153-7.15 10.934-15.983 10.926-25.533 0-9.554-3.78-18.384-10.931-25.532L394.057 515.545c-7.16-7.158-15.998-10.938-25.527-10.933-9.554-.005-18.39 3.772-25.552 10.933-7.24 7.24-10.95 16.1-10.72 25.621.212 9.299 4.068 17.95 11.141 25.02l196.038 195.972c7.063 7.061 15.714 10.913 25.02 11.135 9.54.225 18.407-3.48 25.643-10.71v-.002z" stroke="#FFF" stroke-width="2.096"/><path d="M96.839 860.666l395.844 395.717 421.743-421.605L518.58 439.066z"/><path d="M646.378 656.085c7.148 7.146 15.836 10.924 25.12 10.929 9.287 0 17.98-3.778 25.13-10.926 6.794-6.794 10.5-15.307 10.715-24.593.225-9.53-3.481-18.396-10.722-25.636l-98.233-98.198-140.025-139.982-56.01-55.994c-7.163-7.155-16.003-10.937-25.533-10.929-9.551-.008-18.384 3.772-25.55 10.932-7.242 7.238-10.951 16.103-10.716 25.62.21 9.3 4.065 17.953 11.138 25.021l294.686 293.757v-.001z" stroke="#FFF" stroke-width="2.096"/><path d="M96.839 719.164l395.844 262.902 421.743-280.101L518.58 439.066z"/><path d="M-106.8 440.51c-7.149-7.144-15.836-10.924-25.121-10.929-9.287 0-17.98 3.778-25.13 10.929-6.794 6.79-10.5 15.304-10.715 24.59-.225 9.531 3.48 18.396 10.722 25.636l98.233 98.201 140.024 139.98 56.011 55.992c7.163 7.159 16.001 10.94 25.533 10.931 9.549.007 18.384-3.77 25.547-10.933 7.243-7.238 10.954-16.103 10.72-25.616-.212-9.304-4.066-17.954-11.14-25.025L-106.799 440.51h-.001z" stroke="#FFF" stroke-width="2.096"/></g><g><mask id="B" fill="#fff"><use xlink:href="#A"/></mask><path d="M695.23-33.995c-14.376 13.512-33.253 33.192-34.106 57.542-.577 16.499 7.186 35.086 30.136 55.372.472.485 9.894 8.738 28.26 24.764 8.27 7.153 21.3 12.536 35.158 12.386 11.157-.122 22.853-3.84 33.04-13.127 8.498-7.747 11.76-14.697 12.114-20.764.548-9.365-5.759-16.51-9.668-21.012-.297-.342-.58-.67-1.027-1.294a11.297 11.297 0 00-.61-.651c-.626-.633-1.593-1.552-2.9-2.758-2.64-2.434-6.657-6.026-12.048-10.774-13.91-12.012-19.132-21.648-18.76-30.385.446-10.496 9.064-19.843 21.292-30.662 8.193-7.248 18.52-9.77 28.645-9.877 19.731-.206 38.575 8.79 39.02 9.175l18.497 16c2.612 2.271 5.271 4.576 7.547 6.527l53.616 46.375c3.963 3.428 6.263 7.974 6.801 12.695.54 4.727-.686 9.633-3.79 13.779l-.593.79-75.896 101.356c-3.4 4.541-5.447 9.609-6.242 14.808-2.07 11.154 1.723 23.055 11.193 31.246l116.815 101.039c7.121 6.159 16.396 9.119 25.598 8.938 9.2-.18 18.334-3.499 25.176-9.93 7.396-6.954 10.98-15.996 10.783-24.968-.198-8.974-4.18-17.869-11.877-24.527l-79.685-68.924-.737-.637c-3.782-3.271-5.975-7.607-6.488-12.11-.514-4.508.655-9.188 3.616-13.143l77.461-103.447c3.773-5.038 5.89-10.723 6.458-16.475.588-5.967-.49-12.004-3.11-17.463-.17-.367-.348-.72-.54-1.091-1.938-3.782-4.639-7.284-8.108-10.286l-97.266-84.131c-.819-.983-1.86-1.992-3.163-3.034a388.589 388.589 0 01-6.708-5.502l-9.725-8.413a38.239 38.239 0 00-1.522-1.245c-22.094-19.373-49.275-45.168-67.466-62.431-4.81-4.566-8.993-8.535-12.284-11.629-11.138-9.044-21.386-14.842-31.41-15.699-8.903-.76-17.593 2.424-26.55 10.602-17.527 16-35.982 50.848-58.948 112.995h0z" stroke-opacity=".3" stroke="#FFF" stroke-width="2" opacity=".461" mask="url(#B)" transform="rotate(5 847.192 89.9)"/></g></g></svg>